<?xml version="1.0" encoding="UTF-8" standalone="no"?>
<!-- Created with Inkscape (http://www.inkscape.org/) -->

<svg
   width="500mm"
   height="495mm"
   viewBox="0 0 500 495"
   version="1.1"
   id="svg5"
   xml:space="preserve"
   inkscape:version="1.2.2 (b0a8486541, 2022-12-01)"
   sodipodi:docname="logo-495x495.svg"
   xmlns:inkscape="http://www.inkscape.org/namespaces/inkscape"
   xmlns:sodipodi="http://sodipodi.sourceforge.net/DTD/sodipodi-0.dtd"
   xmlns="http://www.w3.org/2000/svg"
   xmlns:svg="http://www.w3.org/2000/svg"><sodipodi:namedview
     id="namedview7"
     pagecolor="#ffffff"
     bordercolor="#000000"
     borderopacity="0.25"
     inkscape:showpageshadow="2"
     inkscape:pageopacity="0.0"
     inkscape:pagecheckerboard="0"
     inkscape:deskcolor="#d1d1d1"
     inkscape:document-units="mm"
     showgrid="false"
     inkscape:zoom="0.22627417"
     inkscape:cx="886.09318"
     inkscape:cy="952.38445"
     inkscape:window-width="1920"
     inkscape:window-height="985"
     inkscape:window-x="26"
     inkscape:window-y="23"
     inkscape:window-maximized="0"
     inkscape:current-layer="g10695"><inkscape:grid
       type="xygrid"
       id="grid6783"
       originx="0"
       originy="0" /></sodipodi:namedview><defs
     id="defs2"><inkscape:perspective
       sodipodi:type="inkscape:persp3d"
       inkscape:vp_x="-134.34437 : 374.16036 : 1"
       inkscape:vp_y="0 : 1000 : 0"
       inkscape:vp_z="265.65563 : 374.16036 : 1"
       inkscape:persp3d-origin="65.655628 : 340.82702 : 1"
       id="perspective6843" /><filter
       style="color-interpolation-filters:sRGB"
       inkscape:label="Drop Shadow"
       id="filter15377"
       x="-0.081178598"
       y="-0.080084972"
       width="1.2127622"
       height="1.1974643"><feFlood
         flood-opacity="0.878431"
         flood-color="rgb(216,118,0)"
         result="flood"
         id="feFlood15367" /><feComposite
         in="flood"
         in2="SourceGraphic"
         operator="in"
         result="composite1"
         id="feComposite15369" /><feGaussianBlur
         in="composite1"
         stdDeviation="5.1"
         result="blur"
         id="feGaussianBlur15371" /><feOffset
         dx="7.6"
         dy="5.7"
         result="offset"
         id="feOffset15373" /><feComposite
         in="SourceGraphic"
         in2="offset"
         operator="over"
         result="composite2"
         id="feComposite15375" /></filter></defs><g
     inkscape:label="Слой 1"
     inkscape:groupmode="layer"
     id="layer1"><g
       id="g10695"
       transform="matrix(0.67231998,0,0,0.74181093,-29.588332,6.5366487)"><path
         sodipodi:type="star"
         style="fill:#038faf;fill-opacity:1;stroke:none;stroke-width:0.499999;stroke-dasharray:none;stroke-opacity:1"
         id="path7011"
         inkscape:flatsided="true"
         sodipodi:sides="5"
         sodipodi:cx="53.212479"
         sodipodi:cy="24.849997"
         sodipodi:r1="292.34491"
         sodipodi:r2="236.51199"
         sodipodi:arg1="0.43050795"
         sodipodi:arg2="1.0588265"
         inkscape:rounded="0.05"
         inkscape:randomized="0"
         d="M 318.88205,146.85502 C 311.71078,162.47068 36.342649,317.21318 19.275222,315.2184 2.2077958,313.22362 -230.0545,99.151027 -233.43147,82.302519 -236.80845,65.45401 -104.98631,-221.59262 -90.005969,-230.01079 c 14.980342,-8.41817 328.713199,28.24984 341.348529,39.89563 12.63533,11.6458 74.71077,321.35451 67.53949,336.97018 z"
         inkscape:transform-center-x="3.8676275"
         inkscape:transform-center-y="-19.029566"
         transform="matrix(-1.1507076,0.11968857,-0.14074634,-1.0497817,483.55605,368.08898)" /><path
         sodipodi:type="star"
         style="fill:#038faf;fill-opacity:0;stroke:#038faf;stroke-width:2.6608;stroke-dasharray:none;stroke-opacity:1"
         id="path7011-0"
         inkscape:flatsided="true"
         sodipodi:sides="5"
         sodipodi:cx="53.212479"
         sodipodi:cy="24.849997"
         sodipodi:r1="292.34491"
         sodipodi:r2="236.51199"
         sodipodi:arg1="0.43050795"
         sodipodi:arg2="1.0588265"
         inkscape:rounded="0.05"
         inkscape:randomized="0"
         d="M 318.88205,146.85502 C 311.71078,162.47068 36.342649,317.21318 19.275222,315.2184 2.2077958,313.22362 -230.0545,99.151027 -233.43147,82.302519 -236.80845,65.45401 -104.98631,-221.59262 -90.005969,-230.01079 c 14.980342,-8.41817 328.713199,28.24984 341.348529,39.89563 12.63533,11.6458 74.71077,321.35451 67.53949,336.97018 z"
         inkscape:transform-center-x="4.4083645"
         inkscape:transform-center-y="-21.157082"
         transform="matrix(-1.3115869,0.13306988,-0.16042396,-1.1671479,490.35997,366.26439)" /><path
         style="fill:#ffffff;fill-opacity:1;stroke:none;stroke-width:7.30543;stroke-dasharray:none;stroke-opacity:1"
         d="m 164.00287,265.49573 174.94221,20.90497 -4.10387,-9.44258 332.52637,5.97848 3.36118,56.70761 c 0,0 -102.79108,-18.22124 -145.16728,6.99806 -14.05658,8.36552 -31.17675,25.85189 -27.38815,42.63551 7.91664,35.07099 88.85118,50.99156 88.85118,50.99156 l 11.05917,27.44967 -314.2275,-2.05955 18.46719,-34.05859 c 0,0 36.82439,-10.52751 45.96109,-26.40929 6.81411,-11.84465 11.10331,-29.71836 1.07901,-41.76298 -12.3112,-14.79246 -28.15353,-21.55706 -47.60715,-23.32598 -20.3223,-1.84801 -51.48236,-16.00929 -69.35988,-23.79582 -27.77168,-12.09601 -68.39357,-50.81107 -68.39357,-50.81107 z"
         id="path1063"
         sodipodi:nodetypes="cccccaaccccasssc" /><path
         sodipodi:type="star"
         style="fill:#038faf;fill-opacity:1;stroke:#1c1c1c;stroke-width:0.499999;stroke-dasharray:none;stroke-opacity:1"
         id="path7011-9"
         inkscape:flatsided="true"
         sodipodi:sides="5"
         sodipodi:cx="53.212479"
         sodipodi:cy="24.849997"
         sodipodi:r1="292.34491"
         sodipodi:r2="236.51199"
         sodipodi:arg1="0.43050795"
         sodipodi:arg2="1.0588265"
         inkscape:rounded="0.05"
         inkscape:randomized="0"
         d="M 318.88205,146.85502 C 311.71078,162.47068 36.342649,317.21318 19.275222,315.2184 2.2077958,313.22362 -230.0545,99.151027 -233.43147,82.302519 -236.80845,65.45401 -104.98631,-221.59262 -90.005969,-230.01079 c 14.980342,-8.41817 328.713199,28.24984 341.348529,39.89563 12.63533,11.6458 74.71077,321.35451 67.53949,336.97018 z"
         inkscape:transform-center-x="1.3668369"
         inkscape:transform-center-y="-6.7994354"
         transform="matrix(-0.40666439,0.0427658,-0.04974028,-0.37509643,-740.29842,299.61499)" /><path
         sodipodi:type="star"
         style="fill:#038faf;fill-opacity:0;stroke:#038faf;stroke-width:2.6608;stroke-dasharray:none;stroke-opacity:1"
         id="path7011-0-2"
         inkscape:flatsided="true"
         sodipodi:sides="5"
         sodipodi:cx="53.212479"
         sodipodi:cy="24.849997"
         sodipodi:r1="292.34491"
         sodipodi:r2="236.51199"
         sodipodi:arg1="0.43050795"
         sodipodi:arg2="1.0588265"
         inkscape:rounded="0.05"
         inkscape:randomized="0"
         d="M 318.88205,146.85502 C 311.71078,162.47068 36.342649,317.21318 19.275222,315.2184 2.2077958,313.22362 -230.0545,99.151027 -233.43147,82.302519 -236.80845,65.45401 -104.98631,-221.59262 -90.005969,-230.01079 c 14.980342,-8.41817 328.713199,28.24984 341.348529,39.89563 12.63533,11.6458 74.71077,321.35451 67.53949,336.97018 z"
         inkscape:transform-center-x="1.6402072"
         inkscape:transform-center-y="-7.9654032"
         transform="matrix(-0.48799772,0.05009931,-0.0596884,-0.43941805,-735.66709,301.12488)" /><path
         style="fill:#ffffff;fill-opacity:1;stroke:none;stroke-width:2.59491;stroke-dasharray:none;stroke-opacity:1"
         d="m -851.35981,262.42329 60.48358,7.62886 -1.41884,-3.44588 114.9659,2.18173 1.16208,20.69433 c 0,0 -35.53844,-6.64948 -50.18937,2.55381 -4.85984,3.05284 -10.77888,9.43415 -9.46903,15.559 2.73706,12.79847 30.71893,18.60838 30.71893,18.60838 l 3.82354,10.01722 -108.63935,-0.7516 6.38475,-12.42901 c 0,0 12.73147,-3.84181 15.89034,-9.63756 2.35588,-4.32247 3.83881,-10.84514 0.37305,-15.24059 -4.2564,-5.39821 -9.73365,-7.86682 -16.45944,-8.51236 -7.02613,-0.67439 -17.79923,-5.84227 -23.98012,-8.68381 -9.60163,-4.41421 -23.64602,-18.54252 -23.64602,-18.54252 z"
         id="path1063-7"
         sodipodi:nodetypes="cccccaaccccasssc" /><text
         xml:space="preserve"
         style="font-style:normal;font-variant:normal;font-weight:normal;font-stretch:normal;font-size:103.455px;font-family:FreeMono;-inkscape-font-specification:'FreeMono, Normal';font-variant-ligatures:normal;font-variant-caps:normal;font-variant-numeric:normal;font-variant-east-asian:normal;fill:#038faf;fill-opacity:1;stroke:none;stroke-width:4.99593"
         x="366.25259"
         y="406.80496"
         id="text5750"
         transform="scale(0.99683376,1.0031763)"><tspan
           sodipodi:role="line"
           id="tspan5748"
           style="font-style:normal;font-variant:normal;font-weight:normal;font-stretch:normal;font-size:103.455px;font-family:FreeMono;-inkscape-font-specification:'FreeMono, Normal';font-variant-ligatures:normal;font-variant-caps:normal;font-variant-numeric:normal;font-variant-east-asian:normal;stroke-width:4.99593"
           x="366.25259"
           y="406.80496">48</tspan></text></g><text
       xml:space="preserve"
       style="font-style:normal;font-variant:normal;font-weight:normal;font-stretch:normal;font-size:55.969px;font-family:FreeMono;-inkscape-font-specification:'FreeMono, Normal';font-variant-ligatures:normal;font-variant-caps:normal;font-variant-numeric:normal;font-variant-east-asian:normal;fill:#d5fff6;fill-opacity:1;stroke:none;stroke-width:137.133"
       x="130.20424"
       y="155.88492"
       id="text4606"
       transform="scale(0.84502418,1.1833981)"
       inkscape:transform-center-x="-710.55802"
       inkscape:transform-center-y="202.2745"><tspan
         sodipodi:role="line"
         style="font-style:normal;font-variant:normal;font-weight:normal;font-stretch:normal;font-size:55.969px;font-family:FreeMono;-inkscape-font-specification:'FreeMono, Normal';font-variant-ligatures:normal;font-variant-caps:normal;font-variant-numeric:normal;font-variant-east-asian:normal;fill:#d5fff6;fill-opacity:1;stroke:none;stroke-width:137.133"
         x="130.20424"
         y="155.88492"
         id="tspan5190">Стрелецкая </tspan></text><text
       xml:space="preserve"
       style="font-style:normal;font-variant:normal;font-weight:normal;font-stretch:normal;font-size:97.5345px;font-family:FreeMono;-inkscape-font-specification:'FreeMono, Normal';font-variant-ligatures:normal;font-variant-caps:normal;font-variant-numeric:normal;font-variant-east-asian:normal;fill:#d5fff6;fill-opacity:1;stroke:none;stroke-width:238.974"
       x="176.37889"
       y="344.99753"
       id="text4606-3"
       transform="scale(0.81364754,1.2290334)"
       inkscape:transform-center-x="-1192.2754"
       inkscape:transform-center-y="366.08641"><tspan
         sodipodi:role="line"
         style="font-style:normal;font-variant:normal;font-weight:normal;font-stretch:normal;font-size:97.5345px;font-family:FreeMono;-inkscape-font-specification:'FreeMono, Normal';font-variant-ligatures:normal;font-variant-caps:normal;font-variant-numeric:normal;font-variant-east-asian:normal;fill:#d5fff6;fill-opacity:1;stroke:none;stroke-width:238.974"
         x="176.37889"
         y="344.99753"
         id="tspan5190-4">ковка </tspan></text></g></svg>
