<svg xmlns="http://www.w3.org/2000/svg" viewBox="0 0 24 24" fill="none" stroke="currentColor" stroke-width="1.5" stroke-linecap="round" stroke-linejoin="round">
  <path d="M12 2a4 4 0 0 1 4 4c0 2-2 3-2 5h-4c0-2-2-3-2-5a4 4 0 0 1 4-4z"/>
  <path d="M12 11v4"/>
  <path d="M8 17h8"/>
  <path d="M10 20h4"/>
  <path d="M4 8a2 2 0 1 0 0-4 2 2 0 0 0 0 4z"/>
  <path d="M20 8a2 2 0 1 0 0-4 2 2 0 0 0 0 4z"/>
  <path d="M4 20a2 2 0 1 0 0-4 2 2 0 0 0 0 4z"/>
  <path d="M20 20a2 2 0 1 0 0-4 2 2 0 0 0 0 4z"/>
</svg>